<svg version="1.1" xmlns="http://www.w3.org/2000/svg" xmlns:xlink="http://www.w3.org/1999/xlink" width="359.85026" height="366.40746" viewBox="0,0,359.85026,366.40746"><defs><radialGradient cx="240.34471" cy="183.88919" r="139.21102" gradientUnits="userSpaceOnUse" id="color-1"><stop offset="0" stop-color="#ffffff"/><stop offset="1" stop-color="#ffffff" stop-opacity="0"/></radialGradient><linearGradient x1="239.41148" y1="179.37787" x2="418.74044" y2="179.37787" gradientUnits="userSpaceOnUse" id="color-2"><stop offset="0" stop-color="#ffffff"/><stop offset="1" stop-color="#ffffff" stop-opacity="0"/></linearGradient><linearGradient x1="238.21913" y1="178.44853" x2="58.89007" y2="178.44853" gradientUnits="userSpaceOnUse" id="color-3"><stop offset="0" stop-color="#ffffff"/><stop offset="1" stop-color="#ffffff" stop-opacity="0"/></linearGradient><linearGradient x1="239.90067" y1="179.37206" x2="326.00723" y2="336.67597" gradientUnits="userSpaceOnUse" id="color-4"><stop offset="0" stop-color="#ffffff"/><stop offset="1" stop-color="#ffffff" stop-opacity="0"/></linearGradient><linearGradient x1="239.4782" y1="180.18234" x2="153.37177" y2="22.87844" gradientUnits="userSpaceOnUse" id="color-5"><stop offset="0" stop-color="#ffffff"/><stop offset="1" stop-color="#ffffff" stop-opacity="0"/></linearGradient><linearGradient x1="239.3323" y1="179.37206" x2="153.22584" y2="336.67608" gradientUnits="userSpaceOnUse" id="color-6"><stop offset="0" stop-color="#ffffff"/><stop offset="1" stop-color="#ffffff" stop-opacity="0"/></linearGradient><linearGradient x1="239.75477" y1="180.18234" x2="325.86132" y2="22.87844" gradientUnits="userSpaceOnUse" id="color-7"><stop offset="0" stop-color="#ffffff"/><stop offset="1" stop-color="#ffffff" stop-opacity="0"/></linearGradient></defs><g transform="translate(-58.89018,3.20373)"><g data-paper-data="{&quot;isPaintingLayer&quot;:true}" fill-rule="nonzero" stroke="none" stroke-width="0" stroke-linejoin="miter" stroke-miterlimit="10" stroke-dasharray="" stroke-dashoffset="0" style="mix-blend-mode: normal"><path d="M378.21748,183.88919c0,76.8842 -61.72767,139.21102 -137.87255,139.21102c-76.14488,0 -137.87255,-62.32694 -137.87255,-139.21102c0,-76.88419 61.72767,-139.21102 137.87255,-139.21102c76.14488,0 137.87255,62.32694 137.87255,139.21102z" fill="url(#color-1)" stroke-linecap="butt"/><g stroke-linecap="round"><path d="M418.74044,234.62551l-179.32896,-56.19471l178.821,-54.30055" data-paper-data="{&quot;origPos&quot;:null}" fill="url(#color-2)"/><path d="M59.39813,123.2009l178.821,54.30055l-179.32895,56.19471" data-paper-data="{&quot;index&quot;:null}" fill="url(#color-3)"/></g><g data-paper-data="{&quot;origRot&quot;:0}" stroke-linecap="round"><path d="M277.54506,363.20373l-36.81354,-184.28643l133.49401,130.78543" data-paper-data="{&quot;origPos&quot;:null}" fill="url(#color-4)"/><path d="M202.07779,-3.20373l38.23114,182.93131l-135.39945,-130.32161" data-paper-data="{&quot;origPos&quot;:null,&quot;index&quot;:null}" fill="url(#color-5)"/></g><g data-paper-data="{&quot;origRot&quot;:0,&quot;index&quot;:null}" stroke-linecap="round"><path d="M105.00756,309.70272l133.49412,-130.78543l-36.81355,184.28632" data-paper-data="{&quot;origPos&quot;:null}" fill="url(#color-6)"/><path d="M374.32349,49.40608l-135.39946,130.32161l38.23125,-182.9313" data-paper-data="{&quot;origPos&quot;:null,&quot;index&quot;:null}" fill="url(#color-7)"/></g></g></g></svg>