<svg version="1.1" xmlns="http://www.w3.org/2000/svg" xmlns:xlink="http://www.w3.org/1999/xlink" width="142.87888" height="153.17751" viewBox="0,0,142.87888,153.17751"><g transform="translate(-173.14477,-107.41126)"><g data-paper-data="{&quot;isPaintingLayer&quot;:true}" fill="none" fill-rule="nonzero" stroke="#ffffff" stroke-width="40" stroke-linecap="round" stroke-linejoin="miter" stroke-miterlimit="10" stroke-dasharray="" stroke-dashoffset="0" style="mix-blend-mode: normal"><path d="M193.14478,240.58878l31.94008,-101.17751c0,0 16.82196,-12 27.16289,-12c6.31936,0 16.30856,1.02898 24.31889,4.93472c2.57537,1.25572 14.4114,6.8198 15.87346,12.60542c0.3773,1.49302 4.50795,10.19256 3.24218,17.47192c-0.24421,1.40446 0.93675,6.40617 0.34138,10.68465c-0.46479,3.34013 -2.40274,5.84894 -4.3855,8.42235c-1.64408,2.13384 -9.8044,6.47735 -13.75372,9.34617c-3.14151,2.28201 -17.14951,3.26366 -18.65131,4.09716c-3.65622,2.02918 -32.52882,-4.9299 -32.3779,-4.56238"/></g></g></svg>