<svg version="1.1" xmlns="http://www.w3.org/2000/svg" xmlns:xlink="http://www.w3.org/1999/xlink" width="31.87888" height="27.80412" viewBox="0,0,31.87888,27.80412"><g transform="translate(-225.2495,-166.09793)"><g data-paper-data="{&quot;isPaintingLayer&quot;:true}" fill-rule="nonzero" stroke-width="3" stroke-linejoin="miter" stroke-miterlimit="10" stroke-dasharray="" stroke-dashoffset="0" style="mix-blend-mode: normal"><path d="M240.46219,167.59793c2.43106,0 5.03065,5.55221 5.03065,12.05009c0,3.5388 -3.35719,7.10105 -6.41486,7.0929c-2.55677,-0.00681 -4.90411,-2.99523 -4.90411,-5.95431c0,-6.49787 3.85726,-13.18868 6.28832,-13.18868z" fill="#d8ff00" stroke="#a9c700" stroke-linecap="butt"/><path d="M249.71172,181.1723c0,0 -1.63644,0.00132 -2.46967,0.20623c-0.65205,0.16035 -1.61773,1.1343 -1.61773,1.1343c0,0 -0.47771,1.21434 -1.39445,2.7433c-0.78361,1.30691 -0.48042,3.25017 -0.8588,3.88124c-0.2186,0.36458 -0.35557,1.34662 -0.63377,1.84954c-0.23026,0.41626 -0.97418,0.94761 -1.20938,1.02243c-0.73499,0.23382 -3.54051,0.81036 -5.0523,-0.11609c-1.51179,-0.92645 -1.32055,-3.61259 -1.32055,-3.61259c0,0 -0.57062,-2.14474 -0.87234,-3.27882c-0.32533,-1.22281 -1.15045,-3.00462 -1.39146,-3.31802c-0.241,-0.3134 -1.08707,-0.64328 -1.65591,-0.48119c-0.71707,0.20433 -2.43149,1.11618 -2.43149,1.11618c0,0 0.49298,-0.94924 0.84863,-1.40269c0.33481,-0.42688 1.22652,-1.2431 1.22652,-1.2431c0,0 2.16836,-0.78799 2.34702,-0.76572c0.92789,0.11568 2.74652,0.69517 2.74652,0.69517l3.64722,4.3391l5.28219,-4.30382c0,0 0.91739,-0.40655 1.4878,-0.43998c0.77202,-0.04524 2.72538,0.19304 2.72538,0.19304c0,0 1.31855,0.83268 1.82983,1.28498c0.5719,0.50593 1.4401,1.60776 1.4401,1.60776z" fill="#10aa00" stroke="#0c7800" stroke-linecap="round"/></g></g></svg>