<svg version="1.1" xmlns="http://www.w3.org/2000/svg" xmlns:xlink="http://www.w3.org/1999/xlink" width="181" height="48.66667" viewBox="0,0,181,48.66667"><g transform="translate(-121.83333,-339)"><g data-paper-data="{&quot;isPaintingLayer&quot;:true}" fill-rule="nonzero" stroke-linejoin="miter" stroke-miterlimit="10" stroke-dasharray="" stroke-dashoffset="0" style="mix-blend-mode: normal"><path d="M121.83333,387.66667c0,0 0,-34.02274 0,-42c0,-3.17821 4.28066,-6.66667 9.31978,-6.66667c17.61237,0 120.38984,0 157.9458,0c8.56224,0 13.73442,3.99573 13.73442,7.5c0,8.20992 0,41.16667 0,41.16667z" fill="#e2e2e2" stroke="none" stroke-width="0" stroke-linecap="butt"/><path d="M149.13491,363.86606c0,2.13144 -1.69081,4.28402 -3.53246,4.28893c-2.20246,0.00587 -4.62067,-2.56004 -4.62067,-5.10906c0,-4.68046 1.8725,-8.67976 3.62361,-8.67976c1.75111,0 4.52951,4.81943 4.52951,9.4999z" fill="#d8ff00" stroke="#a9c700" stroke-width="3" stroke-linecap="butt"/><path d="M136.01726,364.94432c0,0 0.62537,-0.79366 1.03731,-1.15808c0.36827,-0.32579 1.31804,-0.92558 1.31804,-0.92558c0,0 1.40701,-0.17164 1.96311,-0.13904c0.41087,0.02408 1.07167,0.31692 1.07167,0.31692l3.80479,3.10007l2.62712,-3.12548c0,0 1.30997,-0.41741 1.97833,-0.50073c0.12869,-0.01604 1.69057,0.55156 1.69057,0.55156c0,0 0.64231,0.58793 0.88347,0.89541c0.25618,0.32662 0.61127,1.01037 0.61127,1.01037c0,0 -1.23491,-0.65681 -1.75142,-0.80399c-0.40974,-0.11676 -1.01917,0.12086 -1.19276,0.34661c-0.1736,0.22575 -0.76794,1.5092 -1.00228,2.38999c-0.21733,0.81689 -0.62835,2.36176 -0.62835,2.36176c0,0 0.13775,1.93485 -0.9512,2.60218c-1.08895,0.66733 -3.10978,0.25204 -3.63921,0.08362c-0.16942,-0.05389 -0.70527,-0.43663 -0.87113,-0.73646c-0.20039,-0.36226 -0.29905,-1.06962 -0.45651,-1.33224c-0.27255,-0.45456 -0.05416,-1.8543 -0.6186,-2.79569c-0.66033,-1.10132 -1.00443,-1.97602 -1.00443,-1.97602c0,0 -0.69558,-0.70154 -1.16526,-0.81704c-0.60018,-0.1476 -1.77892,-0.14855 -1.77892,-0.14855z" fill="#10aa00" stroke="#0c7800" stroke-width="3" stroke-linecap="round"/></g></g></svg>