<svg version="1.1" xmlns="http://www.w3.org/2000/svg" xmlns:xlink="http://www.w3.org/1999/xlink" width="75.02344" height="124.2837" viewBox="0,0,75.02344,124.2837"><defs><linearGradient x1="60.61997" y1="124.93252" x2="96.18535" y2="124.93252" gradientUnits="userSpaceOnUse" id="color-1"><stop offset="0" stop-color="#d8ff00"/><stop offset="1" stop-color="#a9c700"/></linearGradient><linearGradient x1="40.77018" y1="143.48976" x2="103.32365" y2="143.48976" gradientUnits="userSpaceOnUse" id="color-2"><stop offset="0" stop-color="#26831b"/><stop offset="1" stop-color="#164d10"/></linearGradient></defs><g transform="translate(-38.08333,-97.9663)"><g data-paper-data="{&quot;isPaintingLayer&quot;:true}" fill-rule="nonzero" stroke-linejoin="miter" stroke-miterlimit="10" stroke-dasharray="" stroke-dashoffset="0" style="mix-blend-mode: normal"><text transform="translate(40.25,195) scale(0.5,0.5)" font-size="40" xml:space="preserve" fill="#000000" fill-rule="nonzero" stroke="none" stroke-width="1" stroke-linecap="butt" stroke-linejoin="miter" stroke-miterlimit="10" stroke-dasharray="" stroke-dashoffset="0" font-family="Sans Serif" font-weight="normal" text-anchor="start" style="mix-blend-mode: normal"><tspan x="0" dy="0">+1/sec</tspan></text><text transform="translate(38.33333,216) scale(0.5,0.5)" font-size="40" xml:space="preserve" fill="#000000" fill-rule="nonzero" stroke="none" stroke-width="1" stroke-linecap="butt" stroke-linejoin="miter" stroke-miterlimit="10" stroke-dasharray="" stroke-dashoffset="0" font-family="Sans Serif" font-weight="normal" text-anchor="start" style="mix-blend-mode: normal"><tspan x="0" dy="0">50 Corn</tspan></text><path d="M90.95514,141.18964c-3.64278,7.85495 -13.55276,12.8981 -20.34815,9.76868c-8.1267,-3.74253 -12.65315,-17.33147 -8.2967,-26.72532c7.99922,-17.24878 21.73497,-28.78706 28.18828,-25.79431c6.45331,2.99276 8.45578,25.50218 0.45656,42.75096z" fill="url(#color-1)" stroke="#a9c700" stroke-width="0" stroke-linecap="butt"/><path d="M40.77018,122.74439c0,0 3.66108,-1.85603 5.80201,-2.495c1.914,-0.57122 6.4392,-1.1584 6.4392,-1.1584c0,0 5.47857,1.77215 7.47222,2.84266c1.47302,0.79095 3.40776,2.99948 3.40776,2.99948l8.72349,17.92724l15.02329,-7.02833c0,0 5.54098,0.70055 8.14649,1.53575c0.50168,0.16082 5.2876,4.92193 5.2876,4.92193c0,0 1.36226,3.26443 1.72551,4.80974c0.38586,1.64151 0.52592,4.76819 0.52592,4.76819c0,0 -3.42845,-4.53108 -5.08039,-5.95623c-1.31046,-1.13055 -3.96246,-1.29641 -4.98803,-0.76118c-1.02558,0.53525 -5.40939,4.24934 -7.77831,7.09481c-2.19705,2.63902 -6.35203,7.62983 -6.35203,7.62983c0,0 -2.79913,7.36587 -7.95272,7.96407c-5.15358,0.59821 -11.89115,-4.38599 -13.55439,-5.91146c-0.53223,-0.48816 -1.85289,-2.81444 -1.95169,-4.20288c-0.11937,-1.6775 0.72597,-4.45296 0.59451,-5.68986c-0.22754,-2.14098 2.96954,-6.92619 2.49832,-11.36009c-0.55128,-5.18721 -0.32445,-8.99879 -0.32445,-8.99879c0,0 -1.36445,-3.77417 -2.89794,-5.00254c-1.95958,-1.56968 -6.30193,-3.58774 -6.30193,-3.58774z" fill="url(#color-2)" stroke="#0c7800" stroke-width="0" stroke-linecap="round"/></g></g></svg>